# xmcd
#
# Track frame offsets:
#	150
#	11795
#	25797
#	48317
#	66195
#	77137
#	91120
#	104762
#	123370
#	138997
#
# Disc length: 2027 seconds
#
# Revision: 0
# Processed by: cddbd v1.5.1PL0 Copyright (c) Steve Scherf et al.
# Submitted via: dBpowerAMP V4.0
#
DISCID=7f07e90a
DTITLE=Tanya Tucker - The Best Of Tanya Tucker
DYEAR=1982
DGENRE=Country
TTITLE0=Pecos Promenade
TTITLE1=Dream Lover  with Glen Campbell
TTITLE2=Texas ( When I Die )
TTITLE3=Love Knows We Tried
TTITLE4=Somebody Buy This Cowgirl A Beer
TTITLE5=Should I Do It
TTITLE6=Can I See You Tonight
TTITLE7=I'm The Singer, You're The Song
TTITLE8=Rodeo Girls
TTITLE9=Save Me
EXTD=
EXTT0=
EXTT1=
EXTT2=
EXTT3=
EXTT4=
EXTT5=
EXTT6=
EXTT7=
EXTT8=
EXTT9=
PLAYORDER=
